# xmcd CD database file
#
# Track frame offsets:
#	150
#	15932
#	36252
#	56680
#	79100
#	97437
#	122637
#	134982
#	153532
#	173390
#
# Disc length: 2497 seconds
#
# Revision: 0
# Processed by: cddbd v1.5PL3 Copyright (c) Steve Scherf et al.
# Submitted via: CDex 1.50Beta6
#
DISCID=8309bf0a
DTITLE=STRAY PIG VANGUARD - MIXTURE
DYEAR=2003
DGENRE=Rock
TTITLE0=タラレバ c'est la vie
TTITLE1=夜空
TTITLE2=腫物
TTITLE3=月と狼
TTITLE4=デタラメコース
TTITLE5=C.M.Y.K
TTITLE6=ペースメーカー
TTITLE7=Clap!
TTITLE8=スターダスト
TTITLE9=立春
EXTD=YEAR: 2003
EXTT0=
EXTT1=
EXTT2=
EXTT3=
EXTT4=
EXTT5=
EXTT6=
EXTT7=
EXTT8=
EXTT9=
PLAYORDER=
